<svg width="24" height="24" viewBox="0 0 24 24" fill="none" xmlns="http://www.w3.org/2000/svg">
    <path d="M15.6327 3H8.36735C5.31224 3 3 5.31224 3 8.36735V15.6327C3 18.6878 5.31224 21 8.36735 21H15.6327C18.6878 21 21 18.6878 21 15.6327V8.36735C21 5.31224 18.6878 3 15.6327 3ZM17.702 15.8204C17.702 15.8204 17.5551 16.1469 17.2612 16.3265C16.9673 16.5061 16.5918 16.5061 16.5918 16.5061H15.6939C15.6939 16.5061 15.4327 16.4735 15.2204 16.3102C15.0082 16.1469 14.8286 15.7714 14.8286 15.7714C14.8286 15.7714 14.4531 14.8245 13.9633 14.8735C13.4735 14.9224 13.3429 15.4612 13.3429 15.8367C13.3429 16.2122 13.3429 16.5061 13.3429 16.5061H12.4449C12.4449 16.5061 10.2245 16.3918 8.65714 14.2857C7.0898 12.1796 6.33878 9.38776 6.33878 9.38776C6.33878 9.38776 6.27347 9.17551 6.33878 9.06122C6.40408 8.94694 6.55102 8.91429 6.55102 8.91429H7.6449C7.6449 8.91429 7.84082 8.89796 7.97143 9.01224C8.10204 9.12653 8.16735 9.32245 8.16735 9.32245C8.16735 9.32245 8.41224 10.1551 8.78776 10.8735C9.42449 12.0816 9.8 12.3592 10.0286 12.3592C10.2571 12.3592 10.3714 12.2449 10.3714 11.8367V10.1714C10.3714 9.68163 10.2571 9.48571 9.93061 9.43673C9.76735 9.41224 9.63673 9.39592 9.63673 9.39592C9.63673 9.39592 9.53878 9.24898 9.66939 9.11837C9.8 8.98776 10.1265 8.91429 10.7469 8.91429H11.5143C11.7755 8.91429 11.8571 8.99592 11.9388 9.24898V12.1143C11.9388 12.3592 11.9878 12.4571 12.0857 12.5224C12.1837 12.5878 12.3306 12.5224 12.6082 12.1959C13.2612 11.4122 13.9633 10.0571 13.9633 10.0571C13.9633 10.0571 14.0449 9.9102 14.1918 8.97959C14.3388 8.04898 14.3388 8.91429 15.4327 8.91429H16.5265C16.5265 8.91429 16.8531 8.91429 16.9673 9.0449C17.0816 9.17551 17.049 9.37143 17.049 9.37143C17.049 9.37143 16.8367 10.2531 15.7755 11.6082C14.7143 12.9633 14.5347 13.1265 14.5347 13.1265C14.5347 13.1265 14.4367 13.2571 14.5347 13.4367C14.6327 13.6163 14.8939 13.8939 14.8939 13.8939C14.8939 13.8939 15.8245 14.6612 16.6245 15.2816C17.1633 15.7224 17.702 15.8204 17.702 15.8204Z" fill="currentColor"/>
</svg>
