<svg width="78" height="78" viewBox="0 0 78 78" fill="none" xmlns="http://www.w3.org/2000/svg">
<path fill-rule="evenodd" clip-rule="evenodd" d="M39 8.9375C22.3969 8.9375 8.9375 22.3969 8.9375 39C8.9375 43.8134 10.067 48.3561 12.0731 52.3838C12.8783 54.0004 13.1883 55.9334 12.6803 57.832L10.7446 65.0666C10.3891 66.3954 11.6046 67.6109 12.9334 67.2554L20.168 65.3197C22.0666 64.8117 23.9996 65.1217 25.6162 65.9269C29.6439 67.933 34.1866 69.0625 39 69.0625C55.6031 69.0625 69.0625 55.6031 69.0625 39C69.0625 22.3969 55.6031 8.9375 39 8.9375ZM4.0625 39C4.0625 19.7046 19.7046 4.0625 39 4.0625C58.2954 4.0625 73.9375 19.7046 73.9375 39C73.9375 58.2954 58.2954 73.9375 39 73.9375C33.4155 73.9375 28.1305 72.6255 23.4427 70.2906C22.7432 69.9422 22.0289 69.8682 21.428 70.029L14.1934 71.9648C9.24094 73.2899 4.71014 68.759 6.03524 63.8066L7.97096 56.572C8.13175 55.9711 8.05783 55.2568 7.70941 54.5573C5.37455 49.8695 4.0625 44.5845 4.0625 39ZM49.6341 25.4219C53.6478 26.9227 56.0625 31.0016 56.0625 36.1023C56.0625 39.0783 54.6499 41.8667 52.959 44.1824C51.2394 46.5374 49.0279 48.6806 46.9866 50.4172C46.885 50.5037 46.7842 50.5896 46.6842 50.6749C44.2891 52.7173 42.2982 54.415 39 54.4149C35.7018 54.4149 33.7109 52.7172 31.3158 50.6749C31.2158 50.5895 31.115 50.5036 31.0134 50.4172C28.9721 48.6806 26.7606 46.5374 25.041 44.1824C23.3501 41.8667 21.9375 39.0783 21.9375 36.1023C21.9375 31.0017 24.3522 26.9228 28.3659 25.422C31.7553 24.1546 35.6119 24.9775 39 27.6107C42.3881 24.9775 46.2447 24.1546 49.6341 25.4219ZM47.9267 29.9882C46.2458 29.3597 43.566 29.6951 40.7416 32.5797C40.2831 33.0479 39.6554 33.3119 39 33.3119C38.3446 33.3119 37.7169 33.0479 37.2584 32.5797C34.434 29.6951 31.7542 29.3597 30.0733 29.9882C28.4198 30.6065 26.8125 32.5022 26.8125 36.1023C26.8125 37.5737 27.543 39.3421 28.9781 41.3075C30.3845 43.2337 32.282 45.096 34.1723 46.7041C36.994 49.1046 37.6544 49.5399 39 49.5399C40.3456 49.54 41.006 49.1046 43.8278 46.7041C45.718 45.096 47.6155 43.2337 49.0219 41.3076C50.457 39.3421 51.1875 37.5738 51.1875 36.1023C51.1875 32.5022 49.5802 30.6065 47.9267 29.9882Z" fill="#E96A53"/>
</svg>
