<svg width="24" height="24" viewBox="0 0 24 24" fill="none" xmlns="http://www.w3.org/2000/svg">
    <path d="M12 2C6.48 2 2 6.48 2 12C2 17.52 6.48 22 12 22C17.52 22 22 17.52 22 12C22 6.48 17.52 2 12 2ZM16.64 8.8C16.49 10.38 15.84 14.22 15.51 15.99C15.37 16.74 15.09 16.99 14.83 17.02C14.25 17.07 13.81 16.64 13.25 16.27C12.37 15.69 11.87 15.33 11.02 14.77C10.03 14.12 10.67 13.76 11.24 13.18C11.39 13.03 13.95 10.7 14 10.49C14.0063 10.4633 14.0065 10.4346 14.0007 10.4077C13.9949 10.3808 13.9832 10.3567 13.9673 10.3385C13.9513 10.3202 13.9315 10.3087 13.9099 10.3052C13.8884 10.3017 13.8661 10.3065 13.8458 10.3189L6.5 15.5C6.1 15.77 5.74 15.91 5.42 15.9C5.06 15.89 4.38 15.7 3.87 15.53C3.24 15.33 2.75 15.22 2.79 14.87C2.81 14.69 3.06 14.51 3.53 14.32C6.45 13.05 8.39 12.21 9.36 11.81C12.14 10.65 12.71 10.45 13.09 10.45C13.17 10.45 13.36 10.47 13.48 10.57C13.58 10.65 13.61 10.76 13.62 10.84C13.61 10.9 13.63 11.08 13.62 11.22Z" fill="currentColor"/>
</svg>
